<?xml version="1.0" encoding="UTF-8" standalone="no"?>
<svg
   xmlns:dc="http://purl.org/dc/elements/1.1/"
   xmlns:cc="http://creativecommons.org/ns#"
   xmlns:rdf="http://www.w3.org/1999/02/22-rdf-syntax-ns#"
   xmlns:svg="http://www.w3.org/2000/svg"
   xmlns="http://www.w3.org/2000/svg"
   xmlns:sodipodi="http://sodipodi.sourceforge.net/DTD/sodipodi-0.dtd"
   xmlns:inkscape="http://www.inkscape.org/namespaces/inkscape"
   version="1.1"
   width="595.27557"
   height="841.88977"
   id="svg9"
   viewBox="0 0 595.27557 841.88977"
   sodipodi:docname="clube-do-uno.svg"
   inkscape:version="1.0.2 (e86c870879, 2021-01-15, custom)">
  <metadata
     id="metadata15">
    <rdf:RDF>
      <cc:Work
         rdf:about="">
        <dc:format>image/svg+xml</dc:format>
        <dc:type
           rdf:resource="http://purl.org/dc/dcmitype/StillImage" />
        <dc:title />
      </cc:Work>
    </rdf:RDF>
  </metadata>
  <defs
     id="defs13" />
  <sodipodi:namedview
     pagecolor="#ffffff"
     bordercolor="#666666"
     borderopacity="1"
     objecttolerance="10"
     gridtolerance="10"
     guidetolerance="10"
     inkscape:pageopacity="0"
     inkscape:pageshadow="2"
     inkscape:window-width="1600"
     inkscape:window-height="837"
     id="namedview11"
     showgrid="false"
     inkscape:zoom="0.56273584"
     inkscape:cx="359.3753"
     inkscape:cy="316.68844"
     inkscape:window-x="-8"
     inkscape:window-y="-8"
     inkscape:window-maximized="1"
     inkscape:current-layer="svg9"
     inkscape:document-rotation="0" />
  <g
     id="Layer1000"
     style="fill:#800000">
    <path
       d="m 187.4317,329.1429 -9.4697,45.2653 c -1.7382,8.3113 -1.7473,14.1022 -0.1917,17.3352 1.5556,3.234 5.0488,4.841 10.4735,4.841 5.4251,0 9.551,-1.607 12.3782,-4.8215 2.8272,-3.2144 5.0294,-9.0044 6.7762,-17.3547 l 9.4697,-45.2653 h 28.1298 l -10.081,48.2885 c -2.9994,14.3701 -8.4811,24.9268 -16.6759,31.6092 -8.2066,6.692 -19.7305,10.0458 -34.5658,10.0458 -14.7516,0 -24.9097,-3.3629 -30.4599,-10.0838 -5.5584,-6.73 -6.9784,-17.2772 -3.9942,-31.5712 l 10.0815,-48.2885 z m 49.0111,87.6472 13.0062,-64.2902 h 25.1157 l -1.351,6.6776 c 3.9151,-2.7168 7.8175,-4.7067 11.7141,-6.0078 3.8928,-1.2821 7.926,-1.9329 12.1118,-1.9329 8.2381,0 13.7817,2.3919 16.6317,7.1753 2.8291,4.8029 3.2054,12.3797 1.0994,22.7889 l -7.2,35.5891 H 282.455 l 6.1121,-30.2125 c 0.9676,-4.7838 0.9638,-8.0749 -0.008,-9.8926 -0.9719,-1.8177 -3.1341,-2.7168 -6.466,-2.7168 -3.7006,0 -6.8023,1.0142 -9.3184,3.0232 -2.5199,2.028 -4.1364,4.8024 -4.8562,8.3617 l -6.3599,31.437 z M 344.928,384.6447 c -0.8905,4.4009 -0.4305,7.9217 1.3834,10.543 1.7968,2.6216 4.6983,3.9227 8.6496,3.9227 3.9685,0 7.3794,-1.3011 10.2375,-3.9227 2.8743,-2.6213 4.7591,-6.1421 5.6492,-10.543 0.8981,-4.4389 0.4419,-7.9787 -1.3796,-10.5619 -1.8011,-2.6022 -4.6854,-3.9033 -8.6543,-3.9033 -3.9514,0 -7.3794,1.3011 -10.2328,3.9033 -2.8667,2.5832 -4.7553,6.123 -5.653,10.5619 z m -26.5266,0.0195 c 2.2069,-10.9063 7.3627,-19.3446 15.4766,-25.3525 8.1106,-5.9893 18.4627,-8.993 31.0546,-8.993 12.6246,0 21.7494,2.9846 27.3858,8.9735 5.6406,5.9698 7.3622,14.4272 5.1482,25.372 -2.2107,10.9254 -7.3499,19.3633 -15.4062,25.3331 -8.0596,5.9893 -18.3918,8.974 -31.0165,8.974 -12.5918,0 -21.7328,-2.9847 -27.4196,-8.974 -5.691,-5.9698 -7.4331,-14.4077 -5.2229,-25.3331 z"
       style="fill:#800000;fill-rule:evenodd"
       id="path2" />
    <path
       d="M 158.3895,319.7089 H 144.987 c -1.9362,0 -3.5065,-0.5784 -4.7111,-1.7359 -1.2045,-1.1569 -1.7606,-2.6207 -1.6674,-4.3904 l 0.4315,-8.1691 c 0.0942,-1.7891 0.7992,-3.2577 2.1155,-4.4051 1.3154,-1.1475 2.9514,-1.7212 4.909,-1.7212 h 13.4025 l -0.2155,4.0841 H 145.849 c -1.489,0 -2.2697,0.6807 -2.3415,2.0422 l -0.431,8.1691 c -0.0718,1.3611 0.6365,2.0418 2.126,2.0418 h 13.4025 z m 23.4944,0 h -20.104 l 1.078,-20.4217 h 4.4675 l -0.862,16.3372 h 15.636 z m 23.8179,-6.1263 c -0.0933,1.7697 -0.804,3.2335 -2.1303,4.3904 -1.3273,1.1575 -2.958,1.7359 -4.8947,1.7359 h -6.701 c -1.8719,0 -3.4256,-0.5932 -4.6606,-1.7796 -1.2355,-1.1865 -1.8078,-2.6355 -1.7174,-4.3467 l 0.7545,-14.2954 h 4.4675 l -0.7545,14.2954 c -0.0304,0.5832 0.1565,1.0694 0.5614,1.4586 0.4048,0.3891 0.9267,0.5832 1.5651,0.5832 h 6.701 c 1.489,0 2.2697,-0.6807 2.3415,-2.0418 l 0.7545,-14.2954 h 4.4675 z m 23.4949,0 c -0.0895,1.6917 -0.8197,3.136 -2.1917,4.3319 -1.371,1.1965 -2.9823,1.7944 -4.8333,1.7944 h -13.4025 l 1.0775,-20.4217 h 13.4025 c 1.851,0 3.399,0.598 4.6445,1.794 1.2454,1.1964 1.8234,2.6402 1.734,4.3323 -0.0823,1.5561 -0.7284,2.9176 -1.9391,4.0846 1.0875,1.1669 1.5899,2.5284 1.5081,4.0845 z m -4.037,-8.1691 c 0.03,-0.5637 -0.1627,-1.0451 -0.5775,-1.4438 -0.4153,-0.3986 -0.931,-0.5984 -1.5485,-0.5984 h -8.9345 l -0.216,4.0845 h 8.935 c 0.617,0 1.1541,-0.1993 1.6113,-0.598 0.4571,-0.3986 0.7007,-0.88 0.7302,-1.4443 z m -0.431,8.1691 c 0.03,-0.5642 -0.1627,-1.0456 -0.5775,-1.4443 -0.4153,-0.3986 -0.9315,-0.598 -1.5485,-0.598 h -8.935 l -0.2155,4.0841 h 8.935 c 0.617,0 1.1541,-0.1993 1.6113,-0.598 0.4571,-0.3986 0.7007,-0.8801 0.7302,-1.4438 z m 26.5219,6.1263 h -12.2855 c -1.9362,0 -3.506,-0.5784 -4.711,-1.7359 -1.2046,-1.1569 -1.7607,-2.6207 -1.667,-4.3904 l 0.431,-8.1691 c 0.0947,-1.7891 0.7997,-3.2577 2.1156,-4.4051 1.3158,-1.1475 2.9518,-1.7212 4.9094,-1.7212 h 12.285 l -0.2155,4.0841 h -12.285 c -1.4895,0 -2.2701,0.6807 -2.342,2.0422 l -0.1075,2.0423 h 14.519 l -0.2155,4.0845 h -14.519 l -0.108,2.0423 c -0.0718,1.3611 0.637,2.0418 2.126,2.0418 h 12.2855 z m 35.1538,-6.1263 c -0.0894,1.6917 -0.8253,3.136 -2.2073,4.3319 -1.382,1.1965 -2.988,1.7944 -4.8176,1.7944 H 265.977 l 1.078,-20.4217 h 13.4025 c 1.851,0 3.399,0.598 4.6439,1.794 1.2455,1.1964 1.8235,2.6402 1.734,4.3323 z m -4.4675,0 0.431,-8.1691 c 0.03,-0.5637 -0.1626,-1.0451 -0.578,-1.4438 -0.4148,-0.3986 -0.9309,-0.5984 -1.5479,-0.5984 h -8.935 l -0.6465,12.2531 h 8.9349 c 0.6171,0 1.1541,-0.2041 1.6118,-0.6122 0.4576,-0.4087 0.7007,-0.8854 0.7297,-1.4296 z m 27.1742,0 c -0.0961,1.8282 -0.7916,3.3063 -2.0847,4.4342 -1.2934,1.1279 -2.9404,1.6921 -4.9398,1.6921 h -6.701 c -1.9576,0 -3.5332,-0.5737 -4.7277,-1.7211 -1.1951,-1.1475 -1.745,-2.616 -1.6508,-4.4052 l 0.4315,-8.1691 c 0.0899,-1.7116 0.8154,-3.1602 2.1759,-4.3466 1.3601,-1.1865 2.9766,-1.7797 4.8486,-1.7797 h 6.701 c 1.9147,0 3.4794,0.5833 4.6944,1.7502 1.215,1.1669 1.7763,2.626 1.684,4.3761 z m -4.4675,0 0.431,-8.1691 c 0.0328,-0.6222 -0.1428,-1.1184 -0.5276,-1.4875 -0.3849,-0.3697 -0.9172,-0.5547 -1.5984,-0.5547 h -6.701 c -0.6384,0 -1.1803,0.1946 -1.6265,0.5837 -0.4458,0.3891 -0.6841,0.8753 -0.715,1.4585 l -0.431,8.1691 c -0.0719,1.3611 0.6365,2.0418 2.126,2.0418 h 6.701 c 1.489,0 2.2696,-0.6807 2.3415,-2.0418 z"
       style="fill:#800000;fill-rule:evenodd"
       id="path4" />
    <path
       d="M 102.3039,418.0327 C 91.8842,410.9944 84.9772,406.888 82.778,392.1354 c -0.4168,-2.7986 0.0228,-3.7824 1.2882,-4.2039 4.2454,-1.411 5.3628,1.4586 5.4213,-3.2387 0.1494,-11.6556 0.2997,-23.3117 0.4486,-34.9673 0.1328,-10.3969 1.1613,-8.8228 8.0502,-16.8462 10.2546,-11.9416 20.5097,-23.8841 30.7634,-35.8261 7.7799,-9.0586 8.1795,-8.4121 20.3518,-8.9797 17.6507,-0.8239 35.434,-1.2849 53.3321,-1.4285 5.3685,-0.0429 10.7375,-0.0581 16.106,-0.0457 24.0524,0.0547 48.3018,0.6498 72.7043,1.6693 22.4293,0.9367 26.6861,6.3413 44.91,18.4898 12.873,8.5825 25.7479,17.1654 38.6209,25.7474 7.6234,5.0821 10.0838,7.9755 18.994,11.7455 13.2631,5.6112 35.8266,9.523 50.6096,13.648 13.2417,3.6944 26.1066,7.5787 38.7702,11.5619 3.5599,1.1194 7.1054,2.2478 10.6381,3.3814 7.533,0.8672 7.4969,13.3677 8.1929,19.4137 0.1179,1.0251 0.2359,2.1398 0.3534,3.2672 0.2912,2.7892 -0.323,4.6958 2.6041,5.5417 2.2335,0.647 3.0218,-0.648 2.8658,3.4509 -0.0352,0.9281 -0.0971,1.8795 -0.1623,2.8162 -0.4595,6.6006 -1.0894,9.8056 -2.5855,12.3773 -1.7706,3.0437 -6.5255,7.8908 -10.0444,10.6014 0,7.8156 -2.7306,8.5639 -9.1804,8.5725 -7.867,0.0109 -18.5203,0.1318 -20.9408,-0.1946 -1.8481,-0.2492 1.7973,-1.6897 14.4472,-2.7111 5.7576,-0.4648 10.9744,1.0238 10.9744,-4.3157 0,-5.2477 -0.7459,-2.7407 3.5408,-5.8452 7.4897,-5.4242 10.11,-9.6928 10.11,-18.9636 0,-2.1008 0.1575,-1.3292 -1.5832,-2.3529 -4.5779,-2.6917 -4.0788,-6.917 -4.5474,-12.0776 -0.1889,-2.0851 -0.3792,-4.1711 -0.569,-6.2567 0.0761,-2.4414 -0.3211,-4.4104 -1.1631,-5.9332 -0.8768,-1.5846 -2.2373,-2.6869 -4.0503,-3.3353 -32.5302,-11.0995 -62.9649,-17.7177 -95.3667,-27.0737 -10.6724,-3.0807 -16.3453,-8.0316 -25.3398,-14.1322 -12.7678,-8.661 -25.6541,-17.2287 -38.6118,-25.5628 -7.6967,-4.9499 -15.1436,-9.5016 -21.5682,-12.8197 -6.928,-3.5789 -14.8663,-3.4813 -22.4626,-3.8871 -45.3091,-2.4186 -90.385,-3.2725 -137.3343,-1.2593 -14.5414,0.6232 -11.9539,-1.1336 -21.4341,10.1885 -9.4069,11.2318 -18.8143,22.4645 -28.2207,33.6967 -5.0384,6.015 -6.9817,5.9656 -7.1786,13.6779 -0.2769,10.8279 -0.5566,22.6491 -0.833,33.4774 -0.2398,9.3917 1.2093,5.5826 -5.2282,7.9493 -3.5598,1.3082 0.3882,10.237 1.8962,12.7959 1.6513,2.8001 3.8776,4.5926 5.9879,6.5592 2.714,2.5295 5.4437,4.5294 7.25,6.4075 2.4899,2.5898 1.5908,3.0698 -1.3011,1.1175 z"
       style="fill:#800000;fill-rule:evenodd;stroke:#1b1918;stroke-width:0.5669;stroke-linecap:butt;stroke-linejoin:miter;stroke-dasharray:none"
       id="path6" />
  </g>
</svg>
