<?xml version="1.0" encoding="UTF-8" standalone="no"?>
<svg
   xmlns:dc="http://purl.org/dc/elements/1.1/"
   xmlns:cc="http://creativecommons.org/ns#"
   xmlns:rdf="http://www.w3.org/1999/02/22-rdf-syntax-ns#"
   xmlns:svg="http://www.w3.org/2000/svg"
   xmlns="http://www.w3.org/2000/svg"
   xmlns:sodipodi="http://sodipodi.sourceforge.net/DTD/sodipodi-0.dtd"
   xmlns:inkscape="http://www.inkscape.org/namespaces/inkscape"
   width="210mm"
   height="297mm"
   viewBox="0 0 210 297"
   version="1.1"
   id="svg2074"
   inkscape:version="1.0.1 (3bc2e813f5, 2020-09-07)"
   sodipodi:docname="lerdos_furiosos.svg">
  <defs
     id="defs2068" />
  <sodipodi:namedview
     id="base"
     pagecolor="#ffffff"
     bordercolor="#666666"
     borderopacity="1.0"
     inkscape:pageopacity="0.0"
     inkscape:pageshadow="2"
     inkscape:zoom="1.979899"
     inkscape:cx="305.65904"
     inkscape:cy="501.99172"
     inkscape:document-units="mm"
     inkscape:current-layer="g1032"
     inkscape:document-rotation="0"
     showgrid="false"
     inkscape:window-width="1600"
     inkscape:window-height="837"
     inkscape:window-x="-8"
     inkscape:window-y="-8"
     inkscape:window-maximized="1"
     showguides="true"
     inkscape:guide-bbox="true">
    <sodipodi:guide
       position="75.264507,95.018977"
       orientation="0,-1"
       id="guide961" />
  </sodipodi:namedview>
  <metadata
     id="metadata2071">
    <rdf:RDF>
      <cc:Work
         rdf:about="">
        <dc:format>image/svg+xml</dc:format>
        <dc:type
           rdf:resource="http://purl.org/dc/dcmitype/StillImage" />
        <dc:title />
      </cc:Work>
    </rdf:RDF>
  </metadata>
  <g
     inkscape:groupmode="layer"
     id="layer3"
     inkscape:label="Layer 3"
     style="display:none">
    <path
       d="m 16.225558,189.84749 c -4.61448,-3.11698 -7.673321,-4.93556 -8.647261,-11.4689 -0.184584,-1.23939 0.01006,-1.67508 0.570494,-1.86174 1.880122,-0.62489 2.374975,0.64596 2.400882,-1.4343 0.06616,-5.1618 0.132733,-10.32383 0.198667,-15.48565 0.05881,-4.60439 0.514296,-3.90729 3.565122,-7.46052 4.541362,-5.28847 9.082947,-10.57735 13.62391,-15.86599 3.445416,-4.0117 3.622381,-3.72539 9.013019,-3.97676 7.816807,-0.36487 15.692338,-0.56903 23.618708,-0.63263 2.377501,-0.019 4.755221,-0.0257 7.132722,-0.0202 10.65187,0.0242 21.39098,0.28777 32.197897,0.73927 9.933062,0.41483 11.818232,2.80831 19.888882,8.18841 5.70096,3.80086 11.40275,7.60188 17.1037,11.40252 3.37611,2.25067 4.46573,3.53205 8.41171,5.20163 5.8737,2.48499 15.86619,4.21738 22.41301,6.04417 5.86423,1.63611 11.56159,3.35631 17.1698,5.12032 1.57655,0.49572 3.14671,0.99546 4.71122,1.49748 3.33606,0.38406 3.32007,5.92004 3.62831,8.59757 0.0522,0.45399 0.1044,0.94764 0.15649,1.44692 0.12888,1.23522 -0.14311,2.07959 1.15328,2.45421 0.98911,0.28652 1.33821,-0.28698 1.26914,1.52826 -0.0151,0.41102 -0.043,0.83236 -0.0718,1.24718 -0.20351,2.92314 -0.48246,4.34251 -1.14502,5.48142 -0.78413,1.34793 -2.88989,3.49453 -4.44827,4.69493 0,3.46124 -1.20929,3.79264 -4.06564,3.79646 -3.484,0.005 -8.20194,0.0584 -9.27387,-0.0862 -0.81847,-0.11031 0.79594,-0.74831 6.3981,-1.20064 2.54981,-0.20584 4.86013,0.4534 4.86013,-1.91126 0,-2.32401 -0.33032,-1.21375 1.56809,-2.58862 3.31689,-2.40216 4.47731,-4.29255 4.47731,-8.39823 0,-0.93035 0.0697,-0.58864 -0.70112,-1.04199 -2.02738,-1.19206 -1.80635,-3.06329 -2.01387,-5.34872 -0.0837,-0.9234 -0.16794,-1.84721 -0.25199,-2.77083 0.0337,-1.08121 -0.14228,-1.9532 -0.5151,-2.62759 -0.3883,-0.70176 -0.99081,-1.18993 -1.79372,-1.47708 -14.40643,-4.91552 -27.88476,-7.84645 -42.23427,-11.98987 -4.72638,-1.36433 -7.23868,-3.55688 -11.22201,-6.2586 -5.65435,-3.83562 -11.36118,-7.62993 -17.09964,-11.32077 -3.40858,-2.19212 -6.70652,-4.20789 -9.55172,-5.67734 -3.06815,-1.58496 -6.58371,-1.54173 -9.947812,-1.72145 -20.065634,-1.0711 -40.027992,-1.44926 -60.820007,-0.55769 -6.439819,0.27599 -5.293918,-0.50203 -9.492328,4.51209 -4.16595,4.97412 -8.332121,9.94865 -12.497849,14.92295 -2.23131,2.66382 -3.091923,2.64194 -3.179122,6.05742 -0.122624,4.79525 -0.246497,10.0304 -0.368904,14.82583 -0.106205,4.15921 0.535553,2.47232 -2.315365,3.52044 -1.576497,0.57935 0.171918,4.53356 0.839753,5.6668 0.731296,1.24006 1.717238,2.03389 2.651806,2.90481 1.201926,1.12022 2.410805,2.0059 3.210743,2.83763 1.10268,1.14692 0.704505,1.3595 -0.576205,0.4949 z"
       style="fill:#000200;fill-rule:evenodd;stroke:#1b1918;stroke-width:0.251058;stroke-linecap:butt;stroke-linejoin:miter;stroke-dasharray:none"
       id="path6" />
  </g>
  <g
     inkscape:groupmode="layer"
     id="layer1"
     inkscape:label="Layer 2"
     style="display:inline">
    <g
       id="g1032"
       transform="translate(-16.404171,-6.879167)">
      <path
         d="m 84.212803,117.17079 3.264145,-8.99201 h 12.190421 l -1.050624,2.87133 h -7.017511 l -0.32882,0.90393 h 7.017511 L 97.582164,113.88 h -7.001472 l -0.32882,0.90982 h 7.017512 l -0.874182,2.38097 z"
         style="font-style:italic;font-variant:normal;font-weight:bold;font-stretch:normal;font-size:13.4779px;line-height:1.25;font-family:'Incised901 NdIt BT';-inkscape-font-specification:'Incised901 NdIt BT Bold Italic';letter-spacing:0px;word-spacing:0px;fill:#000000;fill-opacity:1;stroke:none;stroke-width:0.352439"
         id="path915-3" />
      <path
         d="m 98.472386,117.17079 3.264144,-8.99201 h 9.74433 q 1.45964,0 2.16541,0.49629 0.70575,0.49628 0.70575,1.52426 0,1.607 -1.09873,2.42223 -1.09072,0.80942 -3.2401,0.80942 h -0.2807 l 3.47268,3.73981 h -6.15938 l -1.61202,-2.06782 q -0.16842,-0.20679 -0.32883,-0.44311 -0.15239,-0.24222 -0.3609,-0.59672 l -0.0482,0.15952 q -0.26465,0.86259 -0.29674,0.9512 l -0.72178,1.99693 z m 6.849094,-4.56103 h 1.70827 q 1.13884,0 1.65213,-0.28352 0.51329,-0.28949 0.51329,-0.91574 0,-0.34858 -0.27269,-0.50219 -0.27268,-0.15951 -0.87418,-0.15951 h -2.0371 z"
         style="font-style:italic;font-variant:normal;font-weight:bold;font-stretch:normal;font-size:13.4779px;line-height:1.25;font-family:'Incised901 NdIt BT';-inkscape-font-specification:'Incised901 NdIt BT Bold Italic';letter-spacing:0px;word-spacing:0px;fill:#000000;fill-opacity:1;stroke:none;stroke-width:0.352439"
         id="path917-9" />
      <path
         d="m 119.88582,114.67758 h 0.92232 q 0.95438,0 1.45163,-0.10044 0.50526,-0.10634 0.80199,-0.34857 0.45714,-0.38402 0.7619,-0.99847 0.30477,-0.61443 0.30477,-1.16381 0,-0.55536 -0.3529,-0.76213 -0.35286,-0.2068 -1.38746,-0.2068 h -1.203 z m -6.08718,2.49321 3.26415,-8.99201 h 7.83555 q 0.93834,0 1.64411,0.0473 0.70575,0.0414 1.01853,0.11225 1.10676,0.27178 1.58797,0.82715 0.4812,0.55534 0.4812,1.56562 0,0.40175 -0.0963,0.89803 -0.0883,0.49629 -0.26466,1.06336 -0.29674,0.91577 -0.6817,1.63656 -0.38496,0.71488 -0.81804,1.15798 -0.58547,0.60852 -1.27518,0.98075 -0.68973,0.3663 -1.53182,0.51989 -0.56142,0.10044 -1.17094,0.14771 -0.6015,0.0473 -1.35536,0.0473 -0.20052,0 -0.5935,-0.006 -0.38496,-0.006 -0.57743,-0.006 z"
         style="font-style:italic;font-variant:normal;font-weight:bold;font-stretch:normal;font-size:13.4779px;line-height:1.25;font-family:'Incised901 NdIt BT';-inkscape-font-specification:'Incised901 NdIt BT Bold Italic';letter-spacing:0px;word-spacing:0px;fill:#000000;fill-opacity:1;stroke:none;stroke-width:0.352439"
         id="path919-6" />
      <path
         d="m 138.1073,111.05011 q -0.58546,0 -1.02655,0.16542 -0.43309,0.15951 -0.71379,0.48448 -0.39297,0.4608 -0.67368,1.16379 -0.28071,0.69714 -0.28071,1.22298 0,0.38993 0.43309,0.59671 0.44109,0.20087 1.27518,0.20087 0.52131,0 0.91428,-0.11816 0.39298,-0.11816 0.66567,-0.35448 0.22455,-0.19497 0.39298,-0.44902 0.16841,-0.25404 0.32882,-0.63807 0.18445,-0.4372 0.2807,-0.77395 0.0963,-0.34261 0.0963,-0.58483 0,-0.46082 -0.42506,-0.68534 -0.41703,-0.2304 -1.26716,-0.2304 z m -7.94784,3.4443 q 0,-0.30719 0.0481,-0.64396 0.0481,-0.33677 0.14435,-0.70898 0.27269,-1.01609 0.68171,-1.84322 0.40901,-0.83304 0.88221,-1.34114 0.67367,-0.71488 1.41952,-1.14027 0.74588,-0.42537 1.65213,-0.61443 0.81002,-0.15952 1.76441,-0.23633 0.95437,-0.0769 2.14133,-0.0769 1.78044,0 2.96741,0.17134 1.19498,0.17135 2.06115,0.54354 0.70575,0.30722 1.0426,0.88622 0.33683,0.579 0.33683,1.48292 0,0.514 -0.11229,1.06344 -0.10428,0.5494 -0.32883,1.14019 -0.33684,0.91576 -0.84209,1.65427 -0.49725,0.73259 -1.17895,1.29976 -0.85012,0.69717 -2.30975,1.01029 -1.45964,0.30722 -4.00199,0.30722 -3.48871,0 -4.93231,-0.67352 -1.43559,-0.67352 -1.43559,-2.28052 z"
         style="font-style:italic;font-variant:normal;font-weight:bold;font-stretch:normal;font-size:13.4779px;line-height:1.25;font-family:'Incised901 NdIt BT';-inkscape-font-specification:'Incised901 NdIt BT Bold Italic';letter-spacing:0px;word-spacing:0px;fill:#000000;fill-opacity:1;stroke:none;stroke-width:0.352439"
         id="path921-6" />
      <path
         d="m 145.66215,114.66577 q 1.56389,0.16542 2.73483,0.24223 1.17092,0.0709 2.09322,0.0709 1.46767,0 1.98896,-0.12407 0.52932,-0.12407 0.52932,-0.44309 0,-0.2186 -0.17644,-0.31314 -0.17644,-0.10043 -0.58545,-0.10043 -0.58547,0 -1.25916,0.0118 -0.18444,0 -0.23257,0 -2.31779,0 -3.24008,-0.46082 -0.91429,-0.46084 -0.91429,-1.57148 0,-0.85074 0.44912,-1.68379 0.44912,-0.83304 1.19498,-1.37658 0.71379,-0.51991 2.02907,-0.75033 1.32328,-0.23041 3.73734,-0.23041 1.55586,0 3.23205,0.10043 1.67618,0.0946 3.43256,0.2895 l -1.01854,2.8536 q -1.13884,-0.16542 -2.13331,-0.24815 -0.98647,-0.0886 -1.83658,-0.0886 -1.93284,0 -2.64662,0.14178 -0.70575,0.14181 -0.70575,0.48447 0,0.21861 0.20049,0.30131 0.20051,0.0768 1.07469,0.0768 h 1.97292 q 1.74033,0 2.5263,0.4313 0.79398,0.4312 0.79398,1.37059 0,0.88032 -0.37694,1.61881 -0.37694,0.73851 -1.05063,1.19936 -0.74585,0.5199 -2.00498,0.75623 -1.25113,0.23632 -3.27218,0.23632 -1.77242,0 -3.61702,-0.11816 -1.84461,-0.11816 -3.73732,-0.35449 z"
         style="font-style:italic;font-variant:normal;font-weight:bold;font-stretch:normal;font-size:13.4779px;line-height:1.25;font-family:'Incised901 NdIt BT';-inkscape-font-specification:'Incised901 NdIt BT Bold Italic';letter-spacing:0px;word-spacing:0px;fill:#000000;fill-opacity:1;stroke:none;stroke-width:0.352439"
         id="path923-4" />
      <path
         d="m 45.548522,133.94531 6.146634,-15.72757 h 22.728957 l -2.069015,5.22874 H 59.457737 l -0.619195,1.63269 h 12.897362 l -1.857583,4.70175 H 57.011165 l -1.631049,4.16439 z"
         style="font-style:italic;font-variant:normal;font-weight:bold;font-stretch:normal;font-size:18.0907px;line-height:1.25;font-family:'Incised901 NdIt BT';-inkscape-font-specification:'Incised901 NdIt BT Bold Italic';letter-spacing:0px;word-spacing:0px;fill:#000000;fill-opacity:1;stroke:none;stroke-width:0.639615"
         id="path926-1" />
      <path
         d="m 82.297897,122.34118 1.474241,-3.86172 h 5.50568 l -0.47451,1.23307 h -3.169392 l -0.148507,0.38822 h 3.169392 l -0.31876,0.82715 h -3.162132 l -0.148507,0.39075 h 3.169392 l -0.39482,1.02253 z"
         style="font-style:italic;font-variant:normal;font-weight:bold;font-stretch:normal;font-size:8.62879px;line-height:1.25;font-family:'Incised901 NdIt BT';-inkscape-font-specification:'Incised901 NdIt BT Bold Italic';letter-spacing:0px;word-spacing:0px;fill:#000000;fill-opacity:1;stroke:none;stroke-width:0.155218"
         id="path929-0" />
      <path
         d="m 74.124074,123.558 h 5.109615 l -2.005939,5.52278 q -0.07107,0.19245 -0.110559,0.33824 -0.03159,0.13998 -0.03159,0.22162 0,0.31492 0.244819,0.47238 0.252717,0.15745 0.750252,0.15745 0.63969,0 1.034558,-0.2741 0.394871,-0.27409 0.600202,-0.86892 L 81.72137,123.558 h 5.133309 l -2.045423,5.59277 q -0.434358,1.22467 -0.789743,1.73206 -0.35538,0.50153 -0.868713,0.81063 -0.868711,0.50736 -2.242858,0.74647 -1.366251,0.24493 -3.43537,0.24493 -3.032599,0 -4.383053,-0.4957 -1.342559,-0.50154 -1.342559,-1.60375 0,-0.27993 0.07897,-0.61235 0.07897,-0.33825 0.292205,-0.90977 z"
         style="font-style:italic;font-variant:normal;font-weight:bold;font-stretch:normal;font-size:13.7849px;line-height:1.25;font-family:'Incised901 NdIt BT';-inkscape-font-specification:'Incised901 NdIt BT Bold Italic';letter-spacing:0px;word-spacing:0px;fill:#000000;fill-opacity:1;stroke:none;stroke-width:0.347471"
         id="path932-7" />
      <path
         d="m 85.772734,132.43409 3.21424,-8.87609 h 9.595338 q 1.437328,0 2.132298,0.48988 0.69497,0.48988 0.69497,1.50462 0,1.58625 -1.08194,2.39104 -1.074051,0.799 -3.190551,0.799 H 96.86068 l 3.41957,3.69155 h -6.065198 l -1.587378,-2.04114 q -0.165845,-0.20411 -0.323792,-0.43739 -0.150052,-0.23909 -0.355383,-0.58901 l -0.04739,0.15746 q -0.260614,0.85143 -0.292207,0.93894 l -0.710764,1.97114 z m 6.744378,-4.50221 h 1.682145 q 1.12143,0 1.626862,-0.27992 0.505437,-0.28577 0.505437,-0.90394 0,-0.34408 -0.268515,-0.4957 -0.268511,-0.15746 -0.860816,-0.15746 h -2.00594 z"
         style="font-style:italic;font-variant:normal;font-weight:bold;font-stretch:normal;font-size:13.7849px;line-height:1.25;font-family:'Incised901 NdIt BT';-inkscape-font-specification:'Incised901 NdIt BT Bold Italic';letter-spacing:0px;word-spacing:0px;fill:#000000;fill-opacity:1;stroke:none;stroke-width:0.347471"
         id="path934-4" />
      <path
         d="m 100.88045,132.43409 3.21426,-8.87609 h 5.18069 l -3.22214,8.87609 z"
         style="font-style:italic;font-variant:normal;font-weight:bold;font-stretch:normal;font-size:13.7849px;line-height:1.25;font-family:'Incised901 NdIt BT';-inkscape-font-specification:'Incised901 NdIt BT Bold Italic';letter-spacing:0px;word-spacing:0px;fill:#000000;fill-opacity:1;stroke:none;stroke-width:0.347471"
         id="path936-4" />
      <path
         d="m 116.8411,126.39228 q -0.57651,0 -1.01087,0.16329 -0.42645,0.15745 -0.70286,0.4782 -0.38698,0.45488 -0.66339,1.14889 -0.27641,0.68817 -0.27641,1.20721 0,0.3849 0.42647,0.58903 0.43435,0.19826 1.25569,0.19826 0.51333,0 0.9003,-0.11663 0.38697,-0.11662 0.65547,-0.3499 0.22113,-0.19245 0.38698,-0.44323 0.16585,-0.25076 0.32379,-0.62983 0.18165,-0.43158 0.27641,-0.764 0.0947,-0.33825 0.0947,-0.57737 0,-0.45488 -0.41856,-0.67646 -0.41067,-0.22746 -1.2478,-0.22746 z m -7.82632,3.4 q 0,-0.30326 0.0474,-0.63568 0.0474,-0.33244 0.14215,-0.69982 0.26851,-1.00311 0.6713,-1.81957 0.40277,-0.8223 0.86871,-1.32384 0.66339,-0.70563 1.39785,-1.12552 0.73445,-0.41991 1.62686,-0.60651 0.79763,-0.15747 1.73743,-0.23328 0.93978,-0.0758 2.1086,-0.0758 1.75322,0 2.92204,0.16911 1.1767,0.16914 2.02962,0.53655 0.69498,0.30325 1.02666,0.87477 0.33169,0.57151 0.33169,1.4638 0,0.50735 -0.11051,1.04973 -0.10263,0.54235 -0.3238,1.12558 -0.33167,0.90391 -0.82922,1.63291 -0.48964,0.72314 -1.16092,1.283 -0.83711,0.68814 -2.27443,0.99726 -1.43733,0.30325 -3.9408,0.30325 -3.43538,0 -4.85692,-0.66483 -1.41363,-0.66483 -1.41363,-2.2511 z"
         style="font-style:italic;font-variant:normal;font-weight:bold;font-stretch:normal;font-size:13.7849px;line-height:1.25;font-family:'Incised901 NdIt BT';-inkscape-font-specification:'Incised901 NdIt BT Bold Italic';letter-spacing:0px;word-spacing:0px;fill:#000000;fill-opacity:1;stroke:none;stroke-width:0.347471"
         id="path938-7" />
      <path
         d="m 124.28044,129.9614 q 1.53999,0.16329 2.69301,0.23911 1.15304,0.07 2.06123,0.07 1.44523,0 1.95855,-0.12247 0.52123,-0.12246 0.52123,-0.43737 0,-0.21579 -0.17375,-0.3091 -0.17374,-0.0991 -0.5765,-0.0991 -0.57651,0 -1.23989,0.0117 -0.18164,0 -0.22902,0 -2.28235,0 -3.19056,-0.45488 -0.9003,-0.45491 -0.9003,-1.5513 0,-0.83977 0.44226,-1.66207 0.44225,-0.82229 1.17672,-1.35883 0.70286,-0.51319 1.99803,-0.74064 1.30306,-0.22745 3.68019,-0.22745 1.53208,0 3.18265,0.0991 1.65055,0.0933 3.38008,0.28577 l -1.00297,2.81677 q -1.12143,-0.16327 -2.10071,-0.24494 -0.97138,-0.0875 -1.8085,-0.0875 -1.90327,0 -2.60614,0.13996 -0.69496,0.13998 -0.69496,0.47821 0,0.21577 0.19742,0.29743 0.19744,0.0758 1.05825,0.0758 h 1.94277 q 1.71373,0 2.48767,0.4257 0.78184,0.42574 0.78184,1.35302 0,0.86895 -0.37117,1.59792 -0.37117,0.72899 -1.03456,1.18389 -0.73446,0.5132 -1.97435,0.74646 -1.232,0.23328 -3.22214,0.23328 -1.74532,0 -3.56173,-0.11662 -1.8164,-0.11666 -3.68018,-0.34992 z"
         style="font-style:italic;font-variant:normal;font-weight:bold;font-stretch:normal;font-size:13.7849px;line-height:1.25;font-family:'Incised901 NdIt BT';-inkscape-font-specification:'Incised901 NdIt BT Bold Italic';letter-spacing:0px;word-spacing:0px;fill:#000000;fill-opacity:1;stroke:none;stroke-width:0.347471"
         id="path940-1" />
      <path
         d="m 146.5353,126.39228 q -0.57649,0 -1.01085,0.16329 -0.42647,0.15745 -0.70287,0.4782 -0.38698,0.45488 -0.66338,1.14889 -0.27641,0.68817 -0.27641,1.20721 0,0.3849 0.42645,0.58903 0.43436,0.19826 1.25569,0.19826 0.51333,0 0.9003,-0.11663 0.38698,-0.11662 0.65549,-0.3499 0.22113,-0.19245 0.38697,-0.44323 0.16585,-0.25076 0.32379,-0.62983 0.18164,-0.43158 0.27641,-0.764 0.0949,-0.33825 0.0949,-0.57737 0,-0.45488 -0.41855,-0.67646 -0.41067,-0.22746 -1.2478,-0.22746 z m -7.82632,3.4 q 0,-0.30326 0.0474,-0.63568 0.0474,-0.33244 0.14215,-0.69982 0.26852,-1.00311 0.67128,-1.81957 0.40277,-0.8223 0.86871,-1.32384 0.66339,-0.70563 1.39784,-1.12552 0.73447,-0.41991 1.62687,-0.60651 0.79764,-0.15747 1.73743,-0.23328 0.93978,-0.0758 2.10859,-0.0758 1.75323,0 2.92205,0.16911 1.17671,0.16914 2.02962,0.53655 0.69498,0.30325 1.02666,0.87477 0.3317,0.57151 0.3317,1.4638 0,0.50735 -0.11051,1.04973 -0.10262,0.54235 -0.32379,1.12558 -0.33169,0.90391 -0.82922,1.63291 -0.48964,0.72314 -1.16092,1.283 -0.83713,0.68814 -2.27445,0.99726 -1.43733,0.30325 -3.94081,0.30325 -3.43536,0 -4.85688,-0.66483 -1.41365,-0.66483 -1.41365,-2.2511 z"
         style="font-style:italic;font-variant:normal;font-weight:bold;font-stretch:normal;font-size:13.7849px;line-height:1.25;font-family:'Incised901 NdIt BT';-inkscape-font-specification:'Incised901 NdIt BT Bold Italic';letter-spacing:0px;word-spacing:0px;fill:#000000;fill-opacity:1;stroke:none;stroke-width:0.347471"
         id="path942-9" />
      <path
         d="m 153.97466,129.9614 q 1.53998,0.16329 2.693,0.23911 1.15303,0.07 2.06123,0.07 1.44523,0 1.95856,-0.12247 0.52123,-0.12246 0.52123,-0.43737 0,-0.21579 -0.17375,-0.3091 -0.17375,-0.0991 -0.57652,-0.0991 -0.57651,0 -1.23988,0.0117 -0.18164,0 -0.22903,0 -2.28235,0 -3.19054,-0.45488 -0.90031,-0.45491 -0.90031,-1.5513 0,-0.83977 0.44226,-1.66207 0.44224,-0.82229 1.17671,-1.35883 0.70286,-0.51319 1.99804,-0.74064 1.30307,-0.22745 3.68018,-0.22745 1.5321,0 3.18266,0.0991 1.65056,0.0933 3.38009,0.28577 l -1.00298,2.81677 q -1.12143,-0.16327 -2.1007,-0.24494 -0.97138,-0.0875 -1.80851,-0.0875 -1.90327,0 -2.60615,0.13996 -0.69496,0.13998 -0.69496,0.47821 0,0.21577 0.19743,0.29743 0.19745,0.0758 1.05826,0.0758 h 1.94275 q 1.71374,0 2.48768,0.4257 0.78184,0.42574 0.78184,1.35302 0,0.86895 -0.37117,1.59792 -0.37118,0.72899 -1.03456,1.18389 -0.73445,0.5132 -1.97435,0.74646 -1.232,0.23328 -3.22213,0.23328 -1.74534,0 -3.56173,-0.11662 -1.8164,-0.11666 -3.6802,-0.34992 z"
         style="font-style:italic;font-variant:normal;font-weight:bold;font-stretch:normal;font-size:13.7849px;line-height:1.25;font-family:'Incised901 NdIt BT';-inkscape-font-specification:'Incised901 NdIt BT Bold Italic';letter-spacing:0px;word-spacing:0px;fill:#000000;fill-opacity:1;stroke:none;stroke-width:0.347471"
         id="path944-9" />
      <path
         d="m 65.21916,117.17079 6.167967,-15.78765 h 7.671649 l -4.358326,10.23811 h 9.435867 l -1.821389,5.54954 z"
         style="font-style:italic;font-variant:normal;font-weight:bold;font-stretch:normal;font-size:17.7472px;line-height:1.25;font-family:'Incised901 NdIt BT';-inkscape-font-specification:'Incised901 NdIt BT Bold Italic';letter-spacing:0px;word-spacing:0px;display:inline;fill:#000000;fill-opacity:1;stroke:none;stroke-width:0.565208"
         id="path912-8-2"
         sodipodi:nodetypes="ccccccc" />
    </g>
  </g>
  <g
     inkscape:groupmode="layer"
     id="layer5"
     inkscape:label="Layer 1"
     style="display:inline">
    <g
       id="g1049"
       transform="translate(-22.45064,-5.61266)">
      <path
         d="m 59.139275,158.57098 2.732505,-9.81822 h 10.204931 l -0.879505,3.13512 h -5.874549 l -0.275264,0.98698 h 5.874549 l -0.590812,2.10299 h -5.861122 l -0.275264,0.99342 h 5.874549 l -0.731801,2.59971 z"
         style="font-style:italic;font-variant:normal;font-weight:bold;font-stretch:normal;font-size:13.4779px;line-height:1.25;font-family:'Incised901 NdIt BT';-inkscape-font-specification:'Incised901 NdIt BT Bold Italic';letter-spacing:0px;word-spacing:0px;fill:#000000;fill-opacity:1;stroke:none;stroke-width:0.336949"
         id="path915" />
      <path
         d="m 71.076359,158.57098 2.732504,-9.81822 h 8.157231 q 1.221906,0 1.812717,0.54187 0.590813,0.54188 0.590813,1.66432 0,1.75463 -0.919787,2.64485 -0.913073,0.88378 -2.712363,0.88378 h -0.234983 l 2.907063,4.0834 h -5.156175 l -1.349469,-2.25781 q -0.140989,-0.22578 -0.275264,-0.48381 -0.127562,-0.26449 -0.302119,-0.65154 l -0.04029,0.17418 q -0.221554,0.94182 -0.248409,1.03858 l -0.60424,2.1804 z m 5.733559,-4.98007 h 1.430033 q 0.953355,0 1.383037,-0.30965 0.429681,-0.31609 0.429681,-0.99988 0,-0.3806 -0.228268,-0.54832 -0.228268,-0.17418 -0.731801,-0.17418 h -1.705298 z"
         style="font-style:italic;font-variant:normal;font-weight:bold;font-stretch:normal;font-size:13.4779px;line-height:1.25;font-family:'Incised901 NdIt BT';-inkscape-font-specification:'Incised901 NdIt BT Bold Italic';letter-spacing:0px;word-spacing:0px;fill:#000000;fill-opacity:1;stroke:none;stroke-width:0.336949"
         id="path917" />
      <path
         d="m 89.002123,155.84871 h 0.772084 q 0.798939,0 1.215192,-0.10966 0.422967,-0.11612 0.671378,-0.3806 0.382684,-0.41931 0.637807,-1.0902 0.255123,-0.67089 0.255123,-1.27082 0,-0.60639 -0.295405,-0.83216 -0.295406,-0.22579 -1.161482,-0.22579 h -1.007066 z m -5.095751,2.72227 2.732504,-9.81822 h 6.559354 q 0.785511,0 1.376323,0.0516 0.590812,0.0452 0.852649,0.12257 0.9265,0.29674 1.329326,0.90312 0.402826,0.60638 0.402826,1.70948 0,0.43866 -0.08056,0.98053 -0.07385,0.54188 -0.221554,1.16115 -0.24841,0.99989 -0.57067,1.7869 -0.322262,0.78055 -0.684805,1.26437 -0.490105,0.66443 -1.06749,1.07085 -0.577384,0.39995 -1.28233,0.56767 -0.469963,0.10966 -0.980211,0.16127 -0.503532,0.0516 -1.134627,0.0516 -0.167844,0 -0.496818,-0.007 -0.322261,-0.007 -0.483392,-0.007 z"
         style="font-style:italic;font-variant:normal;font-weight:bold;font-stretch:normal;font-size:13.4779px;line-height:1.25;font-family:'Incised901 NdIt BT';-inkscape-font-specification:'Incised901 NdIt BT Bold Italic';letter-spacing:0px;word-spacing:0px;fill:#000000;fill-opacity:1;stroke:none;stroke-width:0.336949"
         id="path919" />
      <path
         d="m 104.25581,151.88788 q -0.49011,0 -0.85936,0.18062 -0.36255,0.17417 -0.59753,0.52898 -0.32897,0.50316 -0.56395,1.27081 -0.23499,0.7612 -0.23499,1.33533 0,0.42576 0.36255,0.65154 0.36925,0.21933 1.06749,0.21933 0.43639,0 0.76536,-0.12902 0.32898,-0.12901 0.55725,-0.38705 0.18798,-0.21288 0.32897,-0.49027 0.14099,-0.27738 0.27527,-0.69669 0.15441,-0.47736 0.23498,-0.84506 0.0806,-0.37416 0.0806,-0.63864 0,-0.50317 -0.35583,-0.7483 -0.34911,-0.25158 -1.06077,-0.25158 z m -6.653346,3.76085 q 0,-0.33544 0.04029,-0.70314 0.04029,-0.36771 0.120848,-0.77411 0.228268,-1.10954 0.57067,-2.01266 0.342403,-0.90957 0.738515,-1.46435 0.563956,-0.78056 1.188333,-1.24503 0.62438,-0.46446 1.38304,-0.67088 0.67809,-0.17418 1.47703,-0.25804 0.79893,-0.0839 1.79257,-0.0839 1.49046,0 2.4841,0.18707 1.00035,0.18708 1.72544,0.59348 0.59081,0.33544 0.87279,0.96763 0.28197,0.63219 0.28197,1.61916 0,0.56123 -0.094,1.16116 -0.0873,0.59994 -0.27527,1.24502 -0.28198,0.99988 -0.70494,1.80624 -0.41626,0.79991 -0.98693,1.41919 -0.71166,0.76121 -1.93356,1.1031 -1.22191,0.33544 -3.35017,0.33544 -2.92049,0 -4.12897,-0.73539 -1.201764,-0.73541 -1.201764,-2.49004 z"
         style="font-style:italic;font-variant:normal;font-weight:bold;font-stretch:normal;font-size:13.4779px;line-height:1.25;font-family:'Incised901 NdIt BT';-inkscape-font-specification:'Incised901 NdIt BT Bold Italic';letter-spacing:0px;word-spacing:0px;fill:#000000;fill-opacity:1;stroke:none;stroke-width:0.336949"
         id="path921" />
      <path
         d="m 110.58018,155.83581 q 1.30918,0.18062 2.2894,0.26448 0.98021,0.0774 1.75229,0.0774 1.22862,0 1.66502,-0.13547 0.4431,-0.13547 0.4431,-0.48381 0,-0.23868 -0.1477,-0.3419 -0.1477,-0.10966 -0.4901,-0.10966 -0.49011,0 -1.05407,0.0129 -0.15441,0 -0.1947,0 -1.94028,0 -2.71236,-0.50317 -0.76537,-0.50317 -0.76537,-1.71593 0,-0.92892 0.37597,-1.83849 0.37597,-0.90958 1.00035,-1.50306 0.59753,-0.56768 1.69859,-0.81926 1.10776,-0.25158 3.12862,-0.25158 1.30246,0 2.70564,0.10966 1.40318,0.10322 2.87349,0.31609 l -0.85264,3.11578 q -0.95336,-0.18063 -1.78586,-0.27095 -0.8258,-0.0967 -1.53745,-0.0967 -1.61802,0 -2.21555,0.15481 -0.59081,0.15483 -0.59081,0.52898 0,0.23868 0.16784,0.32899 0.16785,0.0838 0.89965,0.0838 h 1.65158 q 1.45689,0 2.11484,0.47091 0.66466,0.47092 0.66466,1.49661 0,0.96118 -0.31555,1.76753 -0.31554,0.80636 -0.8795,1.30953 -0.62438,0.56768 -1.67844,0.82572 -1.04735,0.25803 -2.73922,0.25803 -1.48374,0 -3.02791,-0.12902 -1.54417,-0.12901 -3.12861,-0.38705 z"
         style="font-style:italic;font-variant:normal;font-weight:bold;font-stretch:normal;font-size:13.4779px;line-height:1.25;font-family:'Incised901 NdIt BT';-inkscape-font-specification:'Incised901 NdIt BT Bold Italic';letter-spacing:0px;word-spacing:0px;fill:#000000;fill-opacity:1;stroke:none;stroke-width:0.336949"
         id="path923" />
      <path
         d="m 54.827101,173.24645 3.696207,-13.07686 h 13.667794 l -1.244178,4.34749 H 63.191246 L 62.8189,165.8746 h 7.755679 l -1.117036,3.90932 h -7.737515 l -0.980812,3.46253 z"
         style="font-style:italic;font-variant:normal;font-weight:bold;font-stretch:normal;font-size:18.0907px;line-height:1.25;font-family:'Incised901 NdIt BT';-inkscape-font-specification:'Incised901 NdIt BT Bold Italic';letter-spacing:0px;word-spacing:0px;fill:#000000;fill-opacity:1;stroke:none;stroke-width:0.45227"
         id="path926" />
      <path
         d="m 45.781185,162.072 3.579978,-13.34584 h 5.592188 l -2.260854,8.65463 h 5.335273 l -1.327687,4.69121 z"
         style="font-style:italic;font-variant:normal;font-weight:bold;font-stretch:normal;font-size:17.7472px;line-height:1.25;font-family:'Incised901 NdIt BT';-inkscape-font-specification:'Incised901 NdIt BT Bold Italic';letter-spacing:0px;word-spacing:0px;fill:#000000;fill-opacity:1;stroke:none;stroke-width:0.443679"
         id="path912"
         sodipodi:nodetypes="ccccccc" />
      <path
         d="m 127.21615,158.38673 1.7839,-6.16423 h 6.66222 l -0.57418,1.96834 h -3.83516 l -0.1797,0.61966 h 3.83515 l -0.38571,1.32033 h -3.82639 l -0.1797,0.62371 h 3.83516 l -0.47775,1.63219 z"
         style="font-style:italic;font-variant:normal;font-weight:bold;font-stretch:normal;font-size:8.62879px;line-height:1.25;font-family:'Incised901 NdIt BT';-inkscape-font-specification:'Incised901 NdIt BT Bold Italic';letter-spacing:0px;word-spacing:0px;fill:#000000;fill-opacity:1;stroke:none;stroke-width:0.21572"
         id="path929" />
      <path
         d="m 73.951661,159.8859 h 4.406265 l -1.729817,6.29986 q -0.06129,0.21953 -0.09534,0.38584 -0.02724,0.15967 -0.02724,0.2528 0,0.35923 0.211119,0.53884 0.21793,0.17962 0.64698,0.17962 0.551634,0 0.892148,-0.31267 0.340516,-0.31266 0.517583,-0.99121 l 1.729817,-6.35308 h 4.426696 l -1.763868,6.37969 q -0.374566,1.39701 -0.68103,1.97578 -0.306463,0.57211 -0.749133,0.92469 -0.749133,0.57876 -1.934125,0.8515 -1.178182,0.27941 -2.962482,0.27941 -2.615156,0 -3.779717,-0.56545 -1.157752,-0.57211 -1.157752,-1.82942 0,-0.31933 0.0681,-0.69851 0.0681,-0.38584 0.251982,-1.03778 z"
         style="font-style:italic;font-variant:normal;font-weight:bold;font-stretch:normal;font-size:13.7849px;line-height:1.25;font-family:'Incised901 NdIt BT';-inkscape-font-specification:'Incised901 NdIt BT Bold Italic';letter-spacing:0px;word-spacing:0px;fill:#000000;fill-opacity:1;stroke:none;stroke-width:0.344624"
         id="path932" />
      <path
         d="m 83.996856,170.01091 2.771793,-10.12501 h 8.274517 q 1.239475,0 1.838781,0.55881 0.599307,0.5588 0.599307,1.71633 0,1.80946 -0.933011,2.72749 -0.926202,0.91139 -2.751362,0.91139 H 93.55852 l 2.948861,4.21099 h -5.230312 l -1.368871,-2.32834 q -0.143016,-0.23285 -0.279222,-0.49894 -0.129396,-0.27275 -0.306464,-0.67189 l -0.04087,0.17961 q -0.22474,0.97125 -0.251982,1.07105 l -0.612927,2.24851 z m 5.815999,-5.13568 h 1.450593 q 0.967063,0 1.402922,-0.31931 0.43586,-0.32598 0.43586,-1.03113 0,-0.3925 -0.231551,-0.56546 -0.23155,-0.17961 -0.742323,-0.17961 H 90.39854 Z"
         style="font-style:italic;font-variant:normal;font-weight:bold;font-stretch:normal;font-size:13.7849px;line-height:1.25;font-family:'Incised901 NdIt BT';-inkscape-font-specification:'Incised901 NdIt BT Bold Italic';letter-spacing:0px;word-spacing:0px;fill:#000000;fill-opacity:1;stroke:none;stroke-width:0.344624"
         id="path934" />
      <path
         d="m 97.024963,170.01091 2.771794,-10.12501 h 4.467553 l -2.7786,10.12501 z"
         style="font-style:italic;font-variant:normal;font-weight:bold;font-stretch:normal;font-size:13.7849px;line-height:1.25;font-family:'Incised901 NdIt BT';-inkscape-font-specification:'Incised901 NdIt BT Bold Italic';letter-spacing:0px;word-spacing:0px;fill:#000000;fill-opacity:1;stroke:none;stroke-width:0.344624"
         id="path936" />
      <path
         d="m 110.78858,163.11899 q -0.49715,0 -0.87172,0.18627 -0.36775,0.17961 -0.60611,0.54549 -0.33371,0.51889 -0.57207,1.31054 -0.23836,0.78499 -0.23836,1.37705 0,0.43906 0.36776,0.6719 0.37456,0.22618 1.08284,0.22618 0.44267,0 0.77637,-0.13305 0.33371,-0.13304 0.56525,-0.39914 0.19069,-0.21953 0.33371,-0.50559 0.14302,-0.28605 0.27922,-0.71846 0.15664,-0.49228 0.23836,-0.87147 0.0817,-0.38584 0.0817,-0.6586 0,-0.51889 -0.36095,-0.77167 -0.35414,-0.25945 -1.07603,-0.25945 z m -6.74901,3.87837 q 0,-0.34592 0.0409,-0.72512 0.0409,-0.37919 0.12258,-0.79829 0.23155,-1.14422 0.57888,-2.07556 0.34733,-0.938 0.74913,-1.51011 0.57207,-0.80493 1.20543,-1.28391 0.63335,-0.47898 1.40292,-0.69185 0.68784,-0.17962 1.49827,-0.2661 0.81042,-0.0865 1.81835,-0.0865 1.51188,0 2.51981,0.19291 1.01473,0.19293 1.75024,0.61203 0.59931,0.34592 0.88534,0.99786 0.28603,0.65194 0.28603,1.66977 0,0.57876 -0.0953,1.19743 -0.0885,0.61868 -0.27923,1.28393 -0.28602,1.03112 -0.71507,1.86268 -0.42225,0.82491 -1.00112,1.46353 -0.72189,0.78499 -1.96136,1.13758 -1.23948,0.34592 -3.39834,0.34592 -2.96248,0 -4.18834,-0.75838 -1.21904,-0.75837 -1.21904,-2.56784 z"
         style="font-style:italic;font-variant:normal;font-weight:bold;font-stretch:normal;font-size:13.7849px;line-height:1.25;font-family:'Incised901 NdIt BT';-inkscape-font-specification:'Incised901 NdIt BT Bold Italic';letter-spacing:0px;word-spacing:0px;fill:#000000;fill-opacity:1;stroke:none;stroke-width:0.344624"
         id="path938" />
      <path
         d="m 117.20388,167.19028 q 1.32801,0.18627 2.32231,0.27276 0.99432,0.0798 1.7775,0.0798 1.24629,0 1.68895,-0.1397 0.44948,-0.1397 0.44948,-0.49893 0,-0.24614 -0.14983,-0.35258 -0.14983,-0.11309 -0.49715,-0.11309 -0.49715,0 -1.06921,0.0133 -0.15664,0 -0.1975,0 -1.96818,0 -2.75137,-0.51889 -0.77637,-0.51889 -0.77637,-1.76954 0,-0.95796 0.38138,-1.89595 0.38137,-0.938 1.01474,-1.55002 0.60611,-0.58541 1.723,-0.84486 1.12369,-0.25945 3.1736,-0.25945 1.32119,0 2.74455,0.11309 1.42335,0.10644 2.91481,0.32597 l -0.86491,3.21313 q -0.96706,-0.18626 -1.81154,-0.27941 -0.83767,-0.0998 -1.55956,-0.0998 -1.64128,0 -2.2474,0.15966 -0.5993,0.15966 -0.5993,0.5455 0,0.24614 0.17025,0.33927 0.17026,0.0865 0.91258,0.0865 h 1.67534 q 1.47783,0 2.14524,0.48562 0.67422,0.48564 0.67422,1.54337 0,0.99122 -0.32008,1.82277 -0.32008,0.83155 -0.89215,1.35045 -0.63336,0.58541 -1.70258,0.85151 -1.06241,0.2661 -2.7786,0.2661 -1.50508,0 -3.07145,-0.13305 -1.56637,-0.13305 -3.1736,-0.39915 z"
         style="font-style:italic;font-variant:normal;font-weight:bold;font-stretch:normal;font-size:13.7849px;line-height:1.25;font-family:'Incised901 NdIt BT';-inkscape-font-specification:'Incised901 NdIt BT Bold Italic';letter-spacing:0px;word-spacing:0px;fill:#000000;fill-opacity:1;stroke:none;stroke-width:0.344624"
         id="path940" />
      <path
         d="m 136.39531,163.11899 q -0.49714,0 -0.87171,0.18627 -0.36776,0.17961 -0.60612,0.54549 -0.33371,0.51889 -0.57206,1.31054 -0.23836,0.78499 -0.23836,1.37705 0,0.43906 0.36775,0.6719 0.37457,0.22618 1.08284,0.22618 0.44267,0 0.77637,-0.13305 0.33371,-0.13304 0.56526,-0.39914 0.19069,-0.21953 0.3337,-0.50559 0.14302,-0.28605 0.27922,-0.71846 0.15664,-0.49228 0.23836,-0.87147 0.0818,-0.38584 0.0818,-0.6586 0,-0.51889 -0.36094,-0.77167 -0.35414,-0.25945 -1.07604,-0.25945 z m -6.74901,3.87837 q 0,-0.34592 0.0409,-0.72512 0.0409,-0.37919 0.12258,-0.79829 0.23156,-1.14422 0.57888,-2.07556 0.34733,-0.938 0.74913,-1.51011 0.57207,-0.80493 1.20542,-1.28391 0.63337,-0.47898 1.40293,-0.69185 0.68784,-0.17962 1.49827,-0.2661 0.81042,-0.0865 1.81834,-0.0865 1.51189,0 2.51982,0.19291 1.01473,0.19293 1.75024,0.61203 0.59931,0.34592 0.88534,0.99786 0.28604,0.65194 0.28604,1.66977 0,0.57876 -0.0953,1.19743 -0.0885,0.61868 -0.27922,1.28393 -0.28603,1.03112 -0.71508,1.86268 -0.42224,0.82491 -1.00111,1.46353 -0.7219,0.78499 -1.96137,1.13758 -1.23948,0.34592 -3.39835,0.34592 -2.96247,0 -4.18832,-0.75838 -1.21906,-0.75837 -1.21906,-2.56784 z"
         style="font-style:italic;font-variant:normal;font-weight:bold;font-stretch:normal;font-size:13.7849px;line-height:1.25;font-family:'Incised901 NdIt BT';-inkscape-font-specification:'Incised901 NdIt BT Bold Italic';letter-spacing:0px;word-spacing:0px;fill:#000000;fill-opacity:1;stroke:none;stroke-width:0.344624"
         id="path942" />
      <path
         d="m 142.81062,167.19028 q 1.328,0.18627 2.3223,0.27276 0.99432,0.0798 1.7775,0.0798 1.24629,0 1.68896,-0.1397 0.44948,-0.1397 0.44948,-0.49893 0,-0.24614 -0.14983,-0.35258 -0.14983,-0.11309 -0.49716,-0.11309 -0.49715,0 -1.06921,0.0133 -0.15664,0 -0.1975,0 -1.96818,0 -2.75136,-0.51889 -0.77638,-0.51889 -0.77638,-1.76954 0,-0.95796 0.38138,-1.89595 0.38137,-0.938 1.01474,-1.55002 0.60611,-0.58541 1.723,-0.84486 1.1237,-0.25945 3.1736,-0.25945 1.3212,0 2.74456,0.11309 1.42335,0.10644 2.91481,0.32597 l -0.86492,3.21313 q -0.96706,-0.18626 -1.81153,-0.27941 -0.83767,-0.0998 -1.55957,-0.0998 -1.64128,0 -2.2474,0.15966 -0.5993,0.15966 -0.5993,0.5455 0,0.24614 0.17025,0.33927 0.17027,0.0865 0.91259,0.0865 h 1.67533 q 1.47784,0 2.14524,0.48562 0.67422,0.48564 0.67422,1.54337 0,0.99122 -0.32008,1.82277 -0.32008,0.83155 -0.89215,1.35045 -0.63335,0.58541 -1.70257,0.85151 -1.06242,0.2661 -2.7786,0.2661 -1.50509,0 -3.07145,-0.13305 -1.56637,-0.13305 -3.17361,-0.39915 z"
         style="font-style:italic;font-variant:normal;font-weight:bold;font-stretch:normal;font-size:13.7849px;line-height:1.25;font-family:'Incised901 NdIt BT';-inkscape-font-specification:'Incised901 NdIt BT Bold Italic';letter-spacing:0px;word-spacing:0px;fill:#000000;fill-opacity:1;stroke:none;stroke-width:0.344624"
         id="path944" />
    </g>
  </g>
</svg>
