<?xml version="1.0" encoding="UTF-8" standalone="no"?>
<svg
   xmlns:dc="http://purl.org/dc/elements/1.1/"
   xmlns:cc="http://creativecommons.org/ns#"
   xmlns:rdf="http://www.w3.org/1999/02/22-rdf-syntax-ns#"
   xmlns:svg="http://www.w3.org/2000/svg"
   xmlns="http://www.w3.org/2000/svg"
   xmlns:sodipodi="http://sodipodi.sourceforge.net/DTD/sodipodi-0.dtd"
   xmlns:inkscape="http://www.inkscape.org/namespaces/inkscape"
   width="210mm"
   height="297mm"
   viewBox="0 0 210 297"
   version="1.1"
   id="svg1415"
   inkscape:version="1.0.1 (3bc2e813f5, 2020-09-07)"
   sodipodi:docname="reserva.svg">
  <defs
     id="defs1409" />
  <sodipodi:namedview
     id="base"
     pagecolor="#ffffff"
     bordercolor="#666666"
     borderopacity="1.0"
     inkscape:pageopacity="0.0"
     inkscape:pageshadow="2"
     inkscape:zoom="0.5"
     inkscape:cx="80.27803"
     inkscape:cy="637.38564"
     inkscape:document-units="mm"
     inkscape:current-layer="layer1"
     inkscape:document-rotation="0"
     showgrid="false"
     inkscape:window-width="1600"
     inkscape:window-height="837"
     inkscape:window-x="-8"
     inkscape:window-y="-8"
     inkscape:window-maximized="1"
     showguides="true"
     inkscape:guide-bbox="true" />
  <metadata
     id="metadata1412">
    <rdf:RDF>
      <cc:Work
         rdf:about="">
        <dc:format>image/svg+xml</dc:format>
        <dc:type
           rdf:resource="http://purl.org/dc/dcmitype/StillImage" />
        <dc:title></dc:title>
      </cc:Work>
    </rdf:RDF>
  </metadata>
  <g
     inkscape:label="Layer 1"
     inkscape:groupmode="layer"
     id="layer1"
     style="display:inline">
    <circle
       style="opacity:1;vector-effect:none;fill:#000000;fill-opacity:1;fill-rule:nonzero;stroke:#000000;stroke-width:0.1011;stroke-linecap:butt;stroke-linejoin:miter;stroke-miterlimit:4;stroke-dasharray:none;stroke-dashoffset:0;stroke-opacity:1"
       id="path2641"
       cx="139.90923"
       cy="105.13543"
       r="12.228323" />
    <rect
       style="opacity:1;vector-effect:none;fill:#000000;fill-opacity:1;fill-rule:nonzero;stroke:#000000;stroke-width:0.085047;stroke-linecap:butt;stroke-linejoin:miter;stroke-miterlimit:4;stroke-dasharray:none;stroke-dashoffset:0;stroke-opacity:1"
       id="rect2653"
       width="29.706799"
       height="7.6321349"
       x="48.450142"
       y="196.38763"
       transform="rotate(-35.697151)" />
    <rect
       style="opacity:1;vector-effect:none;fill:#000000;fill-opacity:1;fill-rule:nonzero;stroke:#000000;stroke-width:0.0850469;stroke-linecap:butt;stroke-linejoin:miter;stroke-miterlimit:4;stroke-dasharray:none;stroke-dashoffset:0;stroke-opacity:1"
       id="rect2653-7"
       width="29.706797"
       height="7.6321354"
       x="95.761841"
       y="70.830116"
       transform="rotate(36.476254)" />
    <rect
       style="opacity:1;vector-effect:none;fill:#000000;fill-opacity:1;fill-rule:nonzero;stroke:#000000;stroke-width:0.0517679;stroke-linecap:butt;stroke-linejoin:miter;stroke-miterlimit:4;stroke-dasharray:none;stroke-dashoffset:0;stroke-opacity:1"
       id="rect2653-7-7-3"
       width="22.450642"
       height="3.7417748"
       x="85.836502"
       y="-108.33681"
       transform="rotate(90)" />
    <rect
       style="opacity:1;vector-effect:none;fill:#000000;fill-opacity:1;fill-rule:nonzero;stroke:#000000;stroke-width:0.0517678;stroke-linecap:butt;stroke-linejoin:miter;stroke-miterlimit:4;stroke-dasharray:none;stroke-dashoffset:0;stroke-opacity:1"
       id="rect2653-7-7-3-5"
       width="22.450642"
       height="3.7417748"
       x="116.08953"
       y="-15.342917"
       transform="rotate(61.825719)" />
    <path
       id="rect2779"
       style="display:inline;opacity:1;vector-effect:none;fill:#000000;fill-opacity:1;fill-rule:nonzero;stroke:none;stroke-width:0.156768;stroke-linecap:butt;stroke-linejoin:miter;stroke-miterlimit:4;stroke-dasharray:none;stroke-dashoffset:0;stroke-opacity:1"
       d="m 128.01596,155.66233 c -1.01701,0 -1.83555,0.81855 -1.83555,1.83555 v 29.33309 h -0.0119 c 0,0 -0.14583,0.73254 -0.30076,1.08366 -0.15493,0.35112 -0.62632,0.99787 -0.62632,0.99787 h 2.77451 10.66808 2.79414 c 0,0 -0.46369,-0.60844 -0.62321,-0.95343 -0.15953,-0.34499 -0.3235,-1.09451 -0.3235,-1.09451 h -0.0119 v -15.96957 h 3.56981 c 0.61828,0.0544 1.06525,0.4826 0.99684,1.36478 v 13.35164 c 0,1.09888 0.72133,1.92366 1.60352,2.23862 0.80679,0.30813 1.22642,0.27486 2.13837,0.29146 1.30747,-0.053 2.28463,-0.34989 3.02152,-1.15807 0.67007,-0.6754 0.80258,-1.88422 0.65371,-2.82774 l -1.93787,-8.46356 -0.12299,-11.85612 c -0.0309,-0.32815 -0.14313,-0.6563 -0.4253,-0.98444 l -5.81411,-5.36453 -0.51521,1.38389 2.22622,2.0681 0.008,4.00905 c -0.0832,1.4336 0.49067,1.89339 1.2516,2.07636 l 1.65468,0.4625 v 7.81141 l 1.73736,7.58507 c 0.23464,1.1595 0.73384,2.24628 0.17467,3.00343 -0.81163,0.78286 -1.28863,0.73682 -1.91203,0.79272 -1.05575,0.008 -2.13837,-0.0576 -2.13837,-1.5198 v -13.27413 c 0.10352,-1.40623 -0.64531,-2.78069 -2.61173,-2.70629 l -3.55844,-0.004 v -11.67735 c -4e-5,-1.017 -0.81859,-1.83555 -1.83559,-1.83555 z m 1.11306,1.83607 h 8.42847 c 0.65449,0 1.18133,0.52683 1.18133,1.18132 v 6.29006 c 0,0.65449 -0.52684,1.18132 -1.18133,1.18132 h -8.42847 c -0.65449,0 -1.18133,-0.52683 -1.18133,-1.18132 v -6.29006 c 0,-0.65449 0.52684,-1.18132 1.18133,-1.18132 z"
       sodipodi:nodetypes="csccsccccscccccscccccccccccccccccsccccccsssssssss" />
    <text
       xml:space="preserve"
       style="font-style:normal;font-weight:normal;font-size:29.2383px;line-height:1.25;font-family:sans-serif;letter-spacing:0px;word-spacing:0px;display:inline;fill:#000000;fill-opacity:1;stroke:none;stroke-width:0.730959"
       x="175.27997"
       y="156.43929"
       id="text2821-4"
       transform="scale(0.94834156,1.0544724)"><tspan
         sodipodi:role="line"
         id="tspan2819-8"
         x="175.27997"
         y="156.43929"
         style="font-style:normal;font-variant:normal;font-weight:bold;font-stretch:normal;font-family:sans-serif;-inkscape-font-specification:'sans-serif Bold';stroke-width:0.730959">F</tspan></text>
    <text
       xml:space="preserve"
       style="font-style:normal;font-weight:normal;font-size:29.2383px;line-height:1.25;font-family:sans-serif;letter-spacing:0px;word-spacing:0px;display:inline;fill:#000000;fill-opacity:1;stroke:none;stroke-width:0.730959"
       x="29.444546"
       y="156.56602"
       id="text2821-4-6"
       transform="scale(0.94834156,1.0544724)"><tspan
         sodipodi:role="line"
         id="tspan2819-8-1"
         x="29.444546"
         y="156.56602"
         style="font-style:normal;font-variant:normal;font-weight:bold;font-stretch:normal;font-family:sans-serif;-inkscape-font-specification:'sans-serif Bold';stroke-width:0.730959">E</tspan></text>
    <path
       id="rect2794"
       style="display:inline;opacity:1;vector-effect:none;fill:#000000;fill-opacity:1;fill-rule:nonzero;stroke:none;stroke-width:0.1;stroke-linecap:butt;stroke-linejoin:miter;stroke-miterlimit:4;stroke-dasharray:none;stroke-dashoffset:0;stroke-opacity:1"
       d="m 122.80336,115.26273 c -1.33845,0.0108 -2.53068,0.31458 -3.71089,0.64182 -3.9751,1.11706 -7.85998,2.22104 -13.54749,3.58273 -12.780301,2.49098 -25.020599,3.45863 -38.55062,4.20026 -4.35246,0.081 -4.285711,5.96102 -0.270784,5.86683 l 29.658655,-1.3591 c 1.986285,-0.01 0.275296,1.7422 -1.221115,2.50734 -6.582294,2.08847 -13.060601,3.53987 -19.185971,4.52618 l 0.794165,5.27029 c 12.060948,-1.30583 22.938159,-3.63198 33.26997,-6.51346 1.38488,-0.28381 1.80179,0.31285 1.80609,1.28416 l -2.27945,9.95133 c -0.37927,1.95956 -1.68469,2.94452 -3.252,3.65352 l -24.969015,8.35556 c -2.252263,0.65775 -3.272572,1.90249 -1.793172,4.33721 l 7.362858,9.66091 c 1.700898,1.65885 -0.554898,2.98805 -1.657263,4.16047 l -13.225549,11.72486 c -0.659805,0.54276 -1.31992,0.86297 -1.979725,1.15755 l -14.023949,5.05448 c -1.116088,0.83783 -0.520665,2.38159 0.789615,2.18384 l 15.29209,-0.0718 c 0.965923,0.0528 1.789833,-0.43681 2.401404,-0.99735 l 19.418969,-14.44925 c 0.864206,-0.40685 1.010651,-1.25676 2.206584,-0.24443 l 9.397873,8.1194 c 0.87028,0.69022 0.68575,1.70336 -0.0253,2.53835 l -4.73098,5.48132 c -0.58698,0.59015 -1.377047,1.38145 -0.4749,1.66708 l 4.3465,0.009 c 1.27835,-0.21508 2.88749,-0.82736 3.78788,-1.79834 l 7.6476,-7.25175 c 1.2571,-1.40666 0.41965,-2.26208 -0.68265,-3.04788 l -11.74553,-9.08936 c -0.88384,-0.68856 -1.67669,-1.40114 -0.21549,-2.70682 l 13.71492,-11.65923 c 4.14781,-3.33096 6.62512,-6.78116 8.28528,-10.28981 l 10.95799,-28.06341 c 0.59599,-1.38495 0.43229,-2.44438 -0.73484,-3.07371 L 125.3996,115.618 c -0.93745,-0.26229 -1.79316,-0.36148 -2.59622,-0.35502 z m -54.724749,21.01681 c -0.287426,0.0305 -0.573675,0.0601 -0.858425,0.0884 -4.486726,-0.13424 -4.385921,5.41602 0.0956,4.92373 0.362178,-0.0215 0.721951,-0.0451 1.080682,-0.0695 -0.23064,-1.52284 -0.33667,-3.17029 -0.317858,-4.94258 z m 30.205312,26.78751 c 0.591924,0.001 0.534792,0.50497 0.24288,0.74 l -3.052528,2.57762 c -0.444789,0.32333 -0.707891,0.39303 -1.007691,0.10026 l -1.725476,-2.02055 c -0.438247,-0.69072 -0.538735,-1.18008 0.07958,-1.26504 l 5.168678,-0.0997 c 0.11226,-0.0225 0.209995,-0.0328 0.294555,-0.0326 z"
       sodipodi:nodetypes="cccccccccccccccccccccccccccccccccccccccccccccccccccccc" />
    <path
       id="rect2745-9"
       style="display:inline;opacity:1;vector-effect:none;fill:#ff0000;fill-opacity:1;fill-rule:nonzero;stroke:none;stroke-width:0.0745175;stroke-linecap:butt;stroke-linejoin:miter;stroke-miterlimit:4;stroke-dasharray:none;stroke-dashoffset:0;stroke-opacity:1"
       d="m 69.779203,115.6622 c 0,0 -0.360411,2.74792 -0.608232,7.06623 l 5.277197,-0.2558 c -0.0071,-4.17551 0.192237,-6.81043 0.192237,-6.81043 z m 4.895825,14.41565 -5.73195,0.29559 c 0.01502,2.08807 0.03811,3.87829 0.118339,5.72058 0.144481,2.05872 0.254454,3.94305 0.390674,5.64824 0.49324,5.17007 1.402334,10.54254 2.973979,15.54117 2.505186,7.96777 6.177448,14.96621 9.526552,20.33571 0,0 2.443965,-2.13256 3.089733,-2.8019 0.959962,-1.02097 2.140557,-1.63205 1.475363,-3.00498 -0.08216,-0.12498 -0.164002,-0.25226 -0.24598,-0.37828 -0.06629,-0.082 -0.13955,-0.1644 -0.225309,-0.24804 l -7.527191,-9.88519 c -1.155619,-1.78519 -0.349738,-3.55762 1.445907,-4.30723 -0.117176,-0.30237 -0.15019,-0.37202 -0.262517,-0.67696 -1.831782,-4.97284 -3.043,-10.22196 -3.835942,-15.2368 -0.32162,-1.80548 -0.731445,-5.42959 -0.771012,-5.78052 0.0055,-7.9e-4 0.01099,-0.002 0.01654,-0.003 -0.193644,-1.86081 -0.335531,-3.52262 -0.437182,-5.21885 z m 19.526458,50.52664 c 0.0042,0.005 0.02075,0.0254 0.03721,0.0455 l -6.684346,5.04775 c 0.814786,1.05509 1.659135,2.1006 2.54093,3.10627 h 11.66492 c 0,0 -3.304678,-3.04718 -7.520987,-8.15454 -0.03375,-0.0409 -0.04208,-0.0504 -0.03772,-0.045 z"
       sodipodi:nodetypes="cccccscccscccccccsccccsccccssc" />
  </g>
</svg>
