<?xml version="1.0" encoding="UTF-8" standalone="no"?>
<svg
   xmlns:dc="http://purl.org/dc/elements/1.1/"
   xmlns:cc="http://creativecommons.org/ns#"
   xmlns:rdf="http://www.w3.org/1999/02/22-rdf-syntax-ns#"
   xmlns:svg="http://www.w3.org/2000/svg"
   xmlns="http://www.w3.org/2000/svg"
   xmlns:sodipodi="http://sodipodi.sourceforge.net/DTD/sodipodi-0.dtd"
   xmlns:inkscape="http://www.inkscape.org/namespaces/inkscape"
   width="210mm"
   height="297mm"
   viewBox="0 0 210 297"
   version="1.1"
   id="svg891"
   inkscape:version="1.0.1 (3bc2e813f5, 2020-09-07)"
   sodipodi:docname="transformers.svg">
  <defs
     id="defs885" />
  <sodipodi:namedview
     id="base"
     pagecolor="#ffffff"
     bordercolor="#666666"
     borderopacity="1.0"
     inkscape:pageopacity="0.0"
     inkscape:pageshadow="2"
     inkscape:zoom="0.49497475"
     inkscape:cx="168.78181"
     inkscape:cy="617.7219"
     inkscape:document-units="mm"
     inkscape:current-layer="layer3"
     inkscape:document-rotation="0"
     showgrid="false"
     showguides="true"
     inkscape:guide-bbox="true"
     inkscape:window-width="1600"
     inkscape:window-height="837"
     inkscape:window-x="-8"
     inkscape:window-y="-8"
     inkscape:window-maximized="1" />
  <metadata
     id="metadata888">
    <rdf:RDF>
      <cc:Work
         rdf:about="">
        <dc:format>image/svg+xml</dc:format>
        <dc:type
           rdf:resource="http://purl.org/dc/dcmitype/StillImage" />
        <dc:title></dc:title>
      </cc:Work>
    </rdf:RDF>
  </metadata>
  <g
     inkscape:groupmode="layer"
     id="layer3"
     inkscape:label="Layer 1"
     style="display:inline">
    <g
       id="g1622"
       transform="translate(3.1750001)">
      <path
         id="rect1480"
         style="fill:#000000;stroke:#000000;stroke-width:0.377953;stroke-miterlimit:4;stroke-dasharray:none"
         d="M 35,227.14258 79.765625,436.16406 200.35742,521.91016 325.71484,540.83984 303.3457,390.42969 176.53125,306.81055 161.68164,238.13086 Z m 74.0957,84.0039 151.01953,102 v 17.17774 L 109.0957,329.14258 Z m 8,60 151.01953,102.00196 v 17.17773 L 117.0957,389.14453 Z"
         transform="scale(0.26458333)" />
      <path
         id="rect1507"
         style="fill:#000000;stroke:#000000;stroke-width:0.1;stroke-miterlimit:4;stroke-dasharray:none"
         d="m 25.79151,122.87717 22.170824,15.91623 2.28e-4,7.56094 13.315116,9.04136 v 63.14769 L 31.604622,194.03768 Z"
         sodipodi:nodetypes="ccccccc" />
      <path
         id="rect1510"
         style="fill:#000000;stroke:#000000;stroke-width:0.1;stroke-miterlimit:4;stroke-dasharray:none"
         d="m 64.294443,155.89267 21.836882,-10.44159 0.133468,46.8716 15.599787,-0.034 v 11.34993 l -15.833706,0.0215 -9.985395,26.83432 -11.751036,-9.74793 z"
         sodipodi:nodetypes="ccccccccc" />
      <path
         id="rect1523"
         style="display:inline;fill:#000000;stroke:#000000;stroke-width:0.1;stroke-miterlimit:4;stroke-dasharray:none"
         d="m 74.635016,53.654358 27.229564,-1.531427 v 23.632568 l -20.392585,0.04793 20.392585,14.571279 V 113.81475 L 49.049465,79.044903 45.710285,63.162023 Z"
         sodipodi:nodetypes="ccccccccc" />
      <path
         id="rect1520"
         style="display:inline;fill:#000000;stroke:#000000;stroke-width:0.1;stroke-miterlimit:4;stroke-dasharray:none"
         d="m 83.57528,105.44941 18.2893,12.06951 v 70.37998 l -12.516584,0.0475 -0.04199,-44.56577 z"
         sodipodi:nodetypes="cccccc" />
      <path
         id="rect1517"
         style="display:inline;fill:#000000;stroke:#000000;stroke-width:0.1;stroke-miterlimit:4;stroke-dasharray:none"
         d="m 88.971881,207.29464 12.892699,-0.0219 v 25.46614 H 79.658485 Z"
         sodipodi:nodetypes="ccccc" />
    </g>
    <g
       id="g1614"
       transform="translate(-3.1183034)">
      <path
         id="rect1480-1"
         style="display:inline;fill:#000000;stroke:#000000;stroke-width:0.1;stroke-miterlimit:4;stroke-dasharray:none"
         d="m 200.27715,60.098141 -11.8443,55.303599 -31.90676,22.68699 -33.16767,5.00848 5.91853,-39.79602 33.55318,-22.124231 3.92899,-18.171502 z m -19.60459,22.226033 -39.95748,26.987496 v 4.54495 l 39.95748,-26.770978 z m -2.11668,15.875 -39.95748,26.988016 v 4.54494 l 39.95748,-26.77097 z" />
      <path
         id="rect1507-0"
         style="display:inline;fill:#000000;stroke:#000000;stroke-width:0.1;stroke-miterlimit:4;stroke-dasharray:none"
         d="m 183.74597,122.87717 -22.17095,15.91623 -2.3e-4,7.56094 -13.31519,9.04136 v 63.14769 l 29.67322,-24.50571 z"
         sodipodi:nodetypes="ccccccc" />
      <path
         id="rect1510-0"
         style="display:inline;fill:#000000;stroke:#000000;stroke-width:0.1;stroke-miterlimit:4;stroke-dasharray:none"
         d="m 145.24281,155.89267 -21.837,-10.44159 -0.13347,46.8716 -15.59987,-0.034 v 11.34993 l 15.83379,0.0215 9.98545,26.83432 11.7511,-9.74793 z"
         sodipodi:nodetypes="ccccccccc" />
      <path
         id="rect1523-8"
         style="display:inline;fill:#000000;stroke:#000000;stroke-width:0.1;stroke-miterlimit:4;stroke-dasharray:none"
         d="M 134.90218,53.654359 107.67247,52.122932 V 75.7555 l 20.3927,0.04793 -20.3927,14.571279 v 23.440041 l 52.81541,-34.769846 3.3392,-15.88288 z"
         sodipodi:nodetypes="ccccccccc" />
      <path
         id="rect1520-5"
         style="display:inline;fill:#000000;stroke:#000000;stroke-width:0.1;stroke-miterlimit:4;stroke-dasharray:none"
         d="m 125.96187,105.44941 -18.2894,12.06951 v 70.37998 l 12.51665,0.0475 0.042,-44.56577 z"
         sodipodi:nodetypes="cccccc" />
      <path
         id="rect1517-2"
         style="display:inline;fill:#000000;stroke:#000000;stroke-width:0.1;stroke-miterlimit:4;stroke-dasharray:none"
         d="m 120.56524,207.29464 -12.89277,-0.0219 v 25.46614 h 22.20622 z"
         sodipodi:nodetypes="ccccc" />
    </g>
  </g>
</svg>
